<mxfile host="65bd71144e">
    <diagram id="vkEbluzZyjNM4ZRwMsi1" name="Page-1">
        <mxGraphModel dx="873" dy="712" grid="0" gridSize="10" guides="0" tooltips="1" connect="1" arrows="1" fold="1" page="1" pageScale="1" pageWidth="827" pageHeight="1169" math="0" shadow="0">
            <root>
                <mxCell id="0"/>
                <mxCell id="1" parent="0"/>
                <mxCell id="2" value="" style="rounded=0;whiteSpace=wrap;html=1;" vertex="1" parent="1">
                    <mxGeometry x="212" y="163" width="140" height="69" as="geometry"/>
                </mxCell>
                <mxCell id="4" value="" style="endArrow=none;html=1;" edge="1" parent="1">
                    <mxGeometry width="50" height="50" relative="1" as="geometry">
                        <mxPoint x="393" y="253" as="sourcePoint"/>
                        <mxPoint x="393" y="133" as="targetPoint"/>
                    </mxGeometry>
                </mxCell>
                <mxCell id="5" value="Azure Kafka for Azure&lt;br&gt;Event Hub" style="shape=cylinder3;whiteSpace=wrap;html=1;boundedLbl=1;backgroundOutline=1;size=15;direction=south;" vertex="1" parent="1">
                    <mxGeometry x="421" y="164" width="166" height="63" as="geometry"/>
                </mxCell>
                <mxCell id="8" value="application" style="text;html=1;align=center;verticalAlign=middle;resizable=0;points=[];autosize=1;strokeColor=none;fillColor=none;" vertex="1" parent="1">
                    <mxGeometry x="247" y="127" width="75" height="26" as="geometry"/>
                </mxCell>
                <mxCell id="9" value="events" style="text;html=1;align=center;verticalAlign=middle;resizable=0;points=[];autosize=1;strokeColor=none;fillColor=none;" vertex="1" parent="1">
                    <mxGeometry x="477" y="125" width="53" height="26" as="geometry"/>
                </mxCell>
                <mxCell id="15" value="Production" style="text;html=1;align=center;verticalAlign=middle;resizable=0;points=[];autosize=1;strokeColor=none;fillColor=none;fontColor=#6666FF;" vertex="1" parent="1">
                    <mxGeometry x="207" y="92" width="75" height="26" as="geometry"/>
                </mxCell>
                <mxCell id="23" value="Lower environment" style="text;html=1;align=center;verticalAlign=middle;resizable=0;points=[];autosize=1;strokeColor=none;fillColor=none;fontColor=#6666FF;" vertex="1" parent="1">
                    <mxGeometry x="201" y="268" width="120" height="26" as="geometry"/>
                </mxCell>
                <mxCell id="24" value="azure-sdk" style="whiteSpace=wrap;html=1;fontColor=#000000;" vertex="1" parent="1">
                    <mxGeometry x="263" y="182" width="82" height="26" as="geometry"/>
                </mxCell>
                <mxCell id="16" style="edgeStyle=none;html=1;fontColor=#6666FF;exitX=1;exitY=0.5;exitDx=0;exitDy=0;" edge="1" parent="1" source="24" target="5">
                    <mxGeometry relative="1" as="geometry">
                        <mxPoint x="340" y="196" as="sourcePoint"/>
                    </mxGeometry>
                </mxCell>
                <mxCell id="26" value="" style="rounded=0;whiteSpace=wrap;html=1;" vertex="1" parent="1">
                    <mxGeometry x="214" y="344" width="140" height="69" as="geometry"/>
                </mxCell>
                <mxCell id="27" value="" style="endArrow=none;html=1;" edge="1" parent="1">
                    <mxGeometry width="50" height="50" relative="1" as="geometry">
                        <mxPoint x="395" y="434" as="sourcePoint"/>
                        <mxPoint x="395" y="314" as="targetPoint"/>
                    </mxGeometry>
                </mxCell>
                <mxCell id="28" value="test-containers" style="shape=cylinder3;whiteSpace=wrap;html=1;boundedLbl=1;backgroundOutline=1;size=15;direction=south;" vertex="1" parent="1">
                    <mxGeometry x="423" y="345" width="166" height="63" as="geometry"/>
                </mxCell>
                <mxCell id="29" value="application" style="text;html=1;align=center;verticalAlign=middle;resizable=0;points=[];autosize=1;strokeColor=none;fillColor=none;" vertex="1" parent="1">
                    <mxGeometry x="249" y="308" width="75" height="26" as="geometry"/>
                </mxCell>
                <mxCell id="30" value="events" style="text;html=1;align=center;verticalAlign=middle;resizable=0;points=[];autosize=1;strokeColor=none;fillColor=none;" vertex="1" parent="1">
                    <mxGeometry x="479" y="306" width="53" height="26" as="geometry"/>
                </mxCell>
                <mxCell id="31" value="azure-sdk" style="whiteSpace=wrap;html=1;fontColor=#000000;" vertex="1" parent="1">
                    <mxGeometry x="265" y="363" width="82" height="26" as="geometry"/>
                </mxCell>
                <mxCell id="32" style="edgeStyle=none;html=1;fontColor=#6666FF;exitX=1;exitY=0.5;exitDx=0;exitDy=0;" edge="1" parent="1" source="31" target="28">
                    <mxGeometry relative="1" as="geometry">
                        <mxPoint x="342" y="377" as="sourcePoint"/>
                    </mxGeometry>
                </mxCell>
                <mxCell id="34" value="" style="endArrow=none;html=1;" edge="1" parent="1">
                    <mxGeometry width="50" height="50" relative="1" as="geometry">
                        <mxPoint x="396" y="661" as="sourcePoint"/>
                        <mxPoint x="396" y="541" as="targetPoint"/>
                    </mxGeometry>
                </mxCell>
                <mxCell id="35" value="Azure Kafka for Azure&lt;br&gt;Event Hub" style="shape=cylinder3;whiteSpace=wrap;html=1;boundedLbl=1;backgroundOutline=1;size=15;direction=south;" vertex="1" parent="1">
                    <mxGeometry x="424" y="572" width="166" height="63" as="geometry"/>
                </mxCell>
                <mxCell id="37" value="events" style="text;html=1;align=center;verticalAlign=middle;resizable=0;points=[];autosize=1;strokeColor=none;fillColor=none;" vertex="1" parent="1">
                    <mxGeometry x="480" y="533" width="53" height="26" as="geometry"/>
                </mxCell>
                <mxCell id="41" value="" style="rounded=0;whiteSpace=wrap;html=1;" vertex="1" parent="1">
                    <mxGeometry x="111" y="745" width="244" height="79" as="geometry"/>
                </mxCell>
                <mxCell id="38" value="Production" style="text;html=1;align=center;verticalAlign=middle;resizable=0;points=[];autosize=1;strokeColor=none;fillColor=none;fontColor=#6666FF;" vertex="1" parent="1">
                    <mxGeometry x="104" y="502" width="75" height="26" as="geometry"/>
                </mxCell>
                <mxCell id="42" value="" style="endArrow=none;html=1;" edge="1" parent="1">
                    <mxGeometry width="50" height="50" relative="1" as="geometry">
                        <mxPoint x="396" y="845" as="sourcePoint"/>
                        <mxPoint x="396" y="725" as="targetPoint"/>
                    </mxGeometry>
                </mxCell>
                <mxCell id="43" value="test-containers" style="shape=cylinder3;whiteSpace=wrap;html=1;boundedLbl=1;backgroundOutline=1;size=15;direction=south;" vertex="1" parent="1">
                    <mxGeometry x="424" y="756" width="166" height="63" as="geometry"/>
                </mxCell>
                <mxCell id="44" value="application" style="text;html=1;align=center;verticalAlign=middle;resizable=0;points=[];autosize=1;strokeColor=none;fillColor=none;" vertex="1" parent="1">
                    <mxGeometry x="105" y="713" width="75" height="26" as="geometry"/>
                </mxCell>
                <mxCell id="45" value="events" style="text;html=1;align=center;verticalAlign=middle;resizable=0;points=[];autosize=1;strokeColor=none;fillColor=none;" vertex="1" parent="1">
                    <mxGeometry x="480" y="717" width="53" height="26" as="geometry"/>
                </mxCell>
                <mxCell id="46" value="azure-sdk" style="whiteSpace=wrap;html=1;fontColor=#000000;" vertex="1" parent="1">
                    <mxGeometry x="176" y="791" width="82" height="26" as="geometry"/>
                </mxCell>
                <mxCell id="47" style="edgeStyle=none;html=1;fontColor=#6666FF;exitX=1;exitY=0.5;exitDx=0;exitDy=0;" edge="1" parent="1" source="49" target="43">
                    <mxGeometry relative="1" as="geometry">
                        <mxPoint x="343" y="788" as="sourcePoint"/>
                    </mxGeometry>
                </mxCell>
                <mxCell id="49" value="node-rdkafka" style="whiteSpace=wrap;html=1;fontColor=#000000;" vertex="1" parent="1">
                    <mxGeometry x="266" y="792" width="82" height="26" as="geometry"/>
                </mxCell>
                <mxCell id="50" value="Lower environment" style="text;html=1;align=center;verticalAlign=middle;resizable=0;points=[];autosize=1;strokeColor=none;fillColor=none;fontColor=#6666FF;" vertex="1" parent="1">
                    <mxGeometry x="106" y="681" width="120" height="26" as="geometry"/>
                </mxCell>
                <mxCell id="51" value="" style="rounded=0;whiteSpace=wrap;html=1;" vertex="1" parent="1">
                    <mxGeometry x="223" y="1282" width="140" height="69" as="geometry"/>
                </mxCell>
                <mxCell id="52" value="" style="endArrow=none;html=1;" edge="1" parent="1">
                    <mxGeometry width="50" height="50" relative="1" as="geometry">
                        <mxPoint x="404" y="1372" as="sourcePoint"/>
                        <mxPoint x="404" y="1252" as="targetPoint"/>
                    </mxGeometry>
                </mxCell>
                <mxCell id="53" value="Azure Kafka for Azure&lt;br&gt;Event Hub" style="shape=cylinder3;whiteSpace=wrap;html=1;boundedLbl=1;backgroundOutline=1;size=15;direction=south;" vertex="1" parent="1">
                    <mxGeometry x="432" y="1283" width="166" height="63" as="geometry"/>
                </mxCell>
                <mxCell id="54" value="application" style="text;html=1;align=center;verticalAlign=middle;resizable=0;points=[];autosize=1;strokeColor=none;fillColor=none;" vertex="1" parent="1">
                    <mxGeometry x="258" y="1246" width="75" height="26" as="geometry"/>
                </mxCell>
                <mxCell id="55" value="events" style="text;html=1;align=center;verticalAlign=middle;resizable=0;points=[];autosize=1;strokeColor=none;fillColor=none;" vertex="1" parent="1">
                    <mxGeometry x="488" y="1244" width="53" height="26" as="geometry"/>
                </mxCell>
                <mxCell id="56" value="Production" style="text;html=1;align=center;verticalAlign=middle;resizable=0;points=[];autosize=1;strokeColor=none;fillColor=none;fontColor=#6666FF;" vertex="1" parent="1">
                    <mxGeometry x="218" y="1211" width="75" height="26" as="geometry"/>
                </mxCell>
                <mxCell id="58" style="edgeStyle=none;html=1;fontColor=#6666FF;exitX=1;exitY=0.5;exitDx=0;exitDy=0;" edge="1" parent="1" source="66" target="53">
                    <mxGeometry relative="1" as="geometry">
                        <mxPoint x="359" y="1302" as="sourcePoint"/>
                    </mxGeometry>
                </mxCell>
                <mxCell id="59" value="" style="rounded=0;whiteSpace=wrap;html=1;" vertex="1" parent="1">
                    <mxGeometry x="223" y="1466" width="140" height="69" as="geometry"/>
                </mxCell>
                <mxCell id="60" value="" style="endArrow=none;html=1;" edge="1" parent="1">
                    <mxGeometry width="50" height="50" relative="1" as="geometry">
                        <mxPoint x="404" y="1556" as="sourcePoint"/>
                        <mxPoint x="404" y="1436" as="targetPoint"/>
                    </mxGeometry>
                </mxCell>
                <mxCell id="61" value="test-containers" style="shape=cylinder3;whiteSpace=wrap;html=1;boundedLbl=1;backgroundOutline=1;size=15;direction=south;" vertex="1" parent="1">
                    <mxGeometry x="432" y="1467" width="166" height="63" as="geometry"/>
                </mxCell>
                <mxCell id="62" value="application" style="text;html=1;align=center;verticalAlign=middle;resizable=0;points=[];autosize=1;strokeColor=none;fillColor=none;" vertex="1" parent="1">
                    <mxGeometry x="258" y="1430" width="75" height="26" as="geometry"/>
                </mxCell>
                <mxCell id="63" value="events" style="text;html=1;align=center;verticalAlign=middle;resizable=0;points=[];autosize=1;strokeColor=none;fillColor=none;" vertex="1" parent="1">
                    <mxGeometry x="488" y="1428" width="53" height="26" as="geometry"/>
                </mxCell>
                <mxCell id="65" style="edgeStyle=none;html=1;fontColor=#6666FF;exitX=1;exitY=0.5;exitDx=0;exitDy=0;" edge="1" parent="1" source="67" target="61">
                    <mxGeometry relative="1" as="geometry">
                        <mxPoint x="351" y="1499" as="sourcePoint"/>
                    </mxGeometry>
                </mxCell>
                <mxCell id="66" value="node-rdkafka" style="whiteSpace=wrap;html=1;fontColor=#000000;" vertex="1" parent="1">
                    <mxGeometry x="274" y="1300" width="82" height="26" as="geometry"/>
                </mxCell>
                <mxCell id="67" value="node-rdkafka" style="whiteSpace=wrap;html=1;fontColor=#000000;" vertex="1" parent="1">
                    <mxGeometry x="277" y="1485" width="82" height="26" as="geometry"/>
                </mxCell>
                <mxCell id="68" value="Lower environment" style="text;html=1;align=center;verticalAlign=middle;resizable=0;points=[];autosize=1;strokeColor=none;fillColor=none;fontColor=#6666FF;" vertex="1" parent="1">
                    <mxGeometry x="217" y="1395" width="120" height="26" as="geometry"/>
                </mxCell>
                <mxCell id="72" value="" style="endArrow=none;html=1;" edge="1" parent="1">
                    <mxGeometry width="50" height="50" relative="1" as="geometry">
                        <mxPoint x="346" y="780" as="sourcePoint"/>
                        <mxPoint x="158" y="780" as="targetPoint"/>
                    </mxGeometry>
                </mxCell>
                <mxCell id="73" value="events" style="text;html=1;align=center;verticalAlign=middle;resizable=0;points=[];autosize=1;strokeColor=none;fillColor=none;fontColor=#000000;" vertex="1" parent="1">
                    <mxGeometry x="117" y="791" width="53" height="26" as="geometry"/>
                </mxCell>
                <mxCell id="74" value="domain" style="text;html=1;align=center;verticalAlign=middle;resizable=0;points=[];autosize=1;strokeColor=none;fillColor=none;fontColor=#000000;" vertex="1" parent="1">
                    <mxGeometry x="114" y="751" width="57" height="26" as="geometry"/>
                </mxCell>
                <mxCell id="76" style="edgeStyle=none;html=1;fontColor=#000000;" edge="1" parent="1" source="75" target="49">
                    <mxGeometry relative="1" as="geometry"/>
                </mxCell>
                <mxCell id="75" value="create" style="whiteSpace=wrap;html=1;fontColor=#000000;" vertex="1" parent="1">
                    <mxGeometry x="225" y="751" width="68" height="20" as="geometry"/>
                </mxCell>
                <mxCell id="77" value="" style="rounded=0;whiteSpace=wrap;html=1;" vertex="1" parent="1">
                    <mxGeometry x="106" y="572" width="244" height="79" as="geometry"/>
                </mxCell>
                <mxCell id="78" value="application" style="text;html=1;align=center;verticalAlign=middle;resizable=0;points=[];autosize=1;strokeColor=none;fillColor=none;" vertex="1" parent="1">
                    <mxGeometry x="100" y="540" width="75" height="26" as="geometry"/>
                </mxCell>
                <mxCell id="79" value="azure-sdk" style="whiteSpace=wrap;html=1;fontColor=#000000;" vertex="1" parent="1">
                    <mxGeometry x="171" y="618" width="82" height="26" as="geometry"/>
                </mxCell>
                <mxCell id="80" value="node-rdkafka" style="whiteSpace=wrap;html=1;fontColor=#000000;" vertex="1" parent="1">
                    <mxGeometry x="261" y="619" width="82" height="26" as="geometry"/>
                </mxCell>
                <mxCell id="81" value="" style="endArrow=none;html=1;" edge="1" parent="1">
                    <mxGeometry width="50" height="50" relative="1" as="geometry">
                        <mxPoint x="341" y="607" as="sourcePoint"/>
                        <mxPoint x="153" y="607" as="targetPoint"/>
                    </mxGeometry>
                </mxCell>
                <mxCell id="82" value="events" style="text;html=1;align=center;verticalAlign=middle;resizable=0;points=[];autosize=1;strokeColor=none;fillColor=none;fontColor=#000000;" vertex="1" parent="1">
                    <mxGeometry x="112" y="618" width="53" height="26" as="geometry"/>
                </mxCell>
                <mxCell id="83" value="domain" style="text;html=1;align=center;verticalAlign=middle;resizable=0;points=[];autosize=1;strokeColor=none;fillColor=none;fontColor=#000000;" vertex="1" parent="1">
                    <mxGeometry x="109" y="578" width="57" height="26" as="geometry"/>
                </mxCell>
                <mxCell id="84" style="edgeStyle=none;html=1;fontColor=#000000;" edge="1" parent="1" source="85" target="79">
                    <mxGeometry relative="1" as="geometry"/>
                </mxCell>
                <mxCell id="85" value="create" style="whiteSpace=wrap;html=1;fontColor=#000000;" vertex="1" parent="1">
                    <mxGeometry x="220" y="578" width="68" height="20" as="geometry"/>
                </mxCell>
                <mxCell id="40" style="edgeStyle=none;html=1;fontColor=#6666FF;exitX=1;exitY=0.5;exitDx=0;exitDy=0;" edge="1" parent="1" source="79" target="35">
                    <mxGeometry relative="1" as="geometry">
                        <mxPoint x="351" y="591" as="sourcePoint"/>
                    </mxGeometry>
                </mxCell>
                <mxCell id="86" value="" style="rounded=0;whiteSpace=wrap;html=1;" vertex="1" parent="1">
                    <mxGeometry x="224" y="1645" width="140" height="69" as="geometry"/>
                </mxCell>
                <mxCell id="87" value="" style="endArrow=none;html=1;" edge="1" parent="1">
                    <mxGeometry width="50" height="50" relative="1" as="geometry">
                        <mxPoint x="405" y="1735" as="sourcePoint"/>
                        <mxPoint x="405" y="1614.9999999999998" as="targetPoint"/>
                    </mxGeometry>
                </mxCell>
                <mxCell id="88" value="Azure Kafka for Azure&lt;br&gt;Event Hub" style="shape=cylinder3;whiteSpace=wrap;html=1;boundedLbl=1;backgroundOutline=1;size=15;direction=south;" vertex="1" parent="1">
                    <mxGeometry x="433" y="1646" width="166" height="63" as="geometry"/>
                </mxCell>
                <mxCell id="89" value="application" style="text;html=1;align=center;verticalAlign=middle;resizable=0;points=[];autosize=1;strokeColor=none;fillColor=none;" vertex="1" parent="1">
                    <mxGeometry x="259" y="1609" width="75" height="26" as="geometry"/>
                </mxCell>
                <mxCell id="90" value="events" style="text;html=1;align=center;verticalAlign=middle;resizable=0;points=[];autosize=1;strokeColor=none;fillColor=none;" vertex="1" parent="1">
                    <mxGeometry x="489" y="1607" width="53" height="26" as="geometry"/>
                </mxCell>
                <mxCell id="91" value="Production" style="text;html=1;align=center;verticalAlign=middle;resizable=0;points=[];autosize=1;strokeColor=none;fillColor=none;fontColor=#6666FF;" vertex="1" parent="1">
                    <mxGeometry x="219" y="1574" width="75" height="26" as="geometry"/>
                </mxCell>
                <mxCell id="92" style="edgeStyle=none;html=1;fontColor=#6666FF;exitX=1;exitY=0.5;exitDx=0;exitDy=0;" edge="1" parent="1" source="99" target="88">
                    <mxGeometry relative="1" as="geometry">
                        <mxPoint x="360" y="1665" as="sourcePoint"/>
                    </mxGeometry>
                </mxCell>
                <mxCell id="93" value="" style="rounded=0;whiteSpace=wrap;html=1;" vertex="1" parent="1">
                    <mxGeometry x="224" y="1829" width="140" height="69" as="geometry"/>
                </mxCell>
                <mxCell id="94" value="" style="endArrow=none;html=1;" edge="1" parent="1">
                    <mxGeometry width="50" height="50" relative="1" as="geometry">
                        <mxPoint x="405" y="1919" as="sourcePoint"/>
                        <mxPoint x="405" y="1799" as="targetPoint"/>
                    </mxGeometry>
                </mxCell>
                <mxCell id="95" value="test-containers" style="shape=cylinder3;whiteSpace=wrap;html=1;boundedLbl=1;backgroundOutline=1;size=15;direction=south;" vertex="1" parent="1">
                    <mxGeometry x="433" y="1830" width="166" height="63" as="geometry"/>
                </mxCell>
                <mxCell id="96" value="application" style="text;html=1;align=center;verticalAlign=middle;resizable=0;points=[];autosize=1;strokeColor=none;fillColor=none;" vertex="1" parent="1">
                    <mxGeometry x="259" y="1793" width="75" height="26" as="geometry"/>
                </mxCell>
                <mxCell id="97" value="events" style="text;html=1;align=center;verticalAlign=middle;resizable=0;points=[];autosize=1;strokeColor=none;fillColor=none;" vertex="1" parent="1">
                    <mxGeometry x="489" y="1791" width="53" height="26" as="geometry"/>
                </mxCell>
                <mxCell id="98" style="edgeStyle=none;html=1;fontColor=#6666FF;exitX=1;exitY=0.5;exitDx=0;exitDy=0;" edge="1" parent="1" source="100" target="95">
                    <mxGeometry relative="1" as="geometry">
                        <mxPoint x="352" y="1862" as="sourcePoint"/>
                    </mxGeometry>
                </mxCell>
                <mxCell id="99" value="node-rdkafka" style="whiteSpace=wrap;html=1;fontColor=#000000;" vertex="1" parent="1">
                    <mxGeometry x="275" y="1663" width="82" height="26" as="geometry"/>
                </mxCell>
                <mxCell id="100" value="node-rdkafka" style="whiteSpace=wrap;html=1;fontColor=#000000;" vertex="1" parent="1">
                    <mxGeometry x="278" y="1848" width="82" height="26" as="geometry"/>
                </mxCell>
                <mxCell id="101" value="Lower environment" style="text;html=1;align=center;verticalAlign=middle;resizable=0;points=[];autosize=1;strokeColor=none;fillColor=none;fontColor=#6666FF;" vertex="1" parent="1">
                    <mxGeometry x="218" y="1758" width="120" height="26" as="geometry"/>
                </mxCell>
                <mxCell id="102" value="" style="rounded=0;whiteSpace=wrap;html=1;" vertex="1" parent="1">
                    <mxGeometry x="225" y="2015" width="140" height="69" as="geometry"/>
                </mxCell>
                <mxCell id="103" value="" style="endArrow=none;html=1;" edge="1" parent="1">
                    <mxGeometry width="50" height="50" relative="1" as="geometry">
                        <mxPoint x="406" y="2105" as="sourcePoint"/>
                        <mxPoint x="406" y="1985" as="targetPoint"/>
                    </mxGeometry>
                </mxCell>
                <mxCell id="104" value="Azure Kafka for Azure&lt;br&gt;Event Hub" style="shape=cylinder3;whiteSpace=wrap;html=1;boundedLbl=1;backgroundOutline=1;size=15;direction=south;" vertex="1" parent="1">
                    <mxGeometry x="434" y="2016" width="166" height="63" as="geometry"/>
                </mxCell>
                <mxCell id="105" value="application" style="text;html=1;align=center;verticalAlign=middle;resizable=0;points=[];autosize=1;strokeColor=none;fillColor=none;" vertex="1" parent="1">
                    <mxGeometry x="260" y="1979" width="75" height="26" as="geometry"/>
                </mxCell>
                <mxCell id="106" value="events" style="text;html=1;align=center;verticalAlign=middle;resizable=0;points=[];autosize=1;strokeColor=none;fillColor=none;" vertex="1" parent="1">
                    <mxGeometry x="490" y="1977" width="53" height="26" as="geometry"/>
                </mxCell>
                <mxCell id="107" value="Production" style="text;html=1;align=center;verticalAlign=middle;resizable=0;points=[];autosize=1;strokeColor=none;fillColor=none;fontColor=#6666FF;" vertex="1" parent="1">
                    <mxGeometry x="220" y="1944" width="75" height="26" as="geometry"/>
                </mxCell>
                <mxCell id="108" style="edgeStyle=none;html=1;fontColor=#6666FF;exitX=1;exitY=0.5;exitDx=0;exitDy=0;" edge="1" parent="1" source="115" target="104">
                    <mxGeometry relative="1" as="geometry">
                        <mxPoint x="361" y="2035" as="sourcePoint"/>
                    </mxGeometry>
                </mxCell>
                <mxCell id="109" value="" style="rounded=0;whiteSpace=wrap;html=1;" vertex="1" parent="1">
                    <mxGeometry x="225" y="2199" width="140" height="69" as="geometry"/>
                </mxCell>
                <mxCell id="110" value="" style="endArrow=none;html=1;" edge="1" parent="1">
                    <mxGeometry width="50" height="50" relative="1" as="geometry">
                        <mxPoint x="406" y="2289" as="sourcePoint"/>
                        <mxPoint x="406" y="2169" as="targetPoint"/>
                    </mxGeometry>
                </mxCell>
                <mxCell id="111" value="Azure Kafka for Azure&lt;br style=&quot;border-color: var(--border-color);&quot;&gt;Event Hub" style="shape=cylinder3;whiteSpace=wrap;html=1;boundedLbl=1;backgroundOutline=1;size=15;direction=south;" vertex="1" parent="1">
                    <mxGeometry x="434" y="2200" width="166" height="63" as="geometry"/>
                </mxCell>
                <mxCell id="112" value="application" style="text;html=1;align=center;verticalAlign=middle;resizable=0;points=[];autosize=1;strokeColor=none;fillColor=none;" vertex="1" parent="1">
                    <mxGeometry x="260" y="2163" width="75" height="26" as="geometry"/>
                </mxCell>
                <mxCell id="113" value="events" style="text;html=1;align=center;verticalAlign=middle;resizable=0;points=[];autosize=1;strokeColor=none;fillColor=none;" vertex="1" parent="1">
                    <mxGeometry x="490" y="2161" width="53" height="26" as="geometry"/>
                </mxCell>
                <mxCell id="114" style="edgeStyle=none;html=1;fontColor=#6666FF;exitX=1;exitY=0.5;exitDx=0;exitDy=0;" edge="1" parent="1" source="116" target="111">
                    <mxGeometry relative="1" as="geometry">
                        <mxPoint x="353" y="2232" as="sourcePoint"/>
                    </mxGeometry>
                </mxCell>
                <mxCell id="115" value="node-rdkafka" style="whiteSpace=wrap;html=1;fontColor=#000000;" vertex="1" parent="1">
                    <mxGeometry x="276" y="2033" width="82" height="26" as="geometry"/>
                </mxCell>
                <mxCell id="116" value="azure-sdk" style="whiteSpace=wrap;html=1;fontColor=#000000;" vertex="1" parent="1">
                    <mxGeometry x="279" y="2218" width="82" height="26" as="geometry"/>
                </mxCell>
                <mxCell id="117" value="Lower environment" style="text;html=1;align=center;verticalAlign=middle;resizable=0;points=[];autosize=1;strokeColor=none;fillColor=none;fontColor=#6666FF;" vertex="1" parent="1">
                    <mxGeometry x="219" y="2128" width="120" height="26" as="geometry"/>
                </mxCell>
            </root>
        </mxGraphModel>
    </diagram>
</mxfile>